# xmcd
# 
# Track frame offsets:
#     150
#     14694
#     26195
#     39894
#     56874
#     71760
#     87213
#     101989
#     116034
#     127727
#     142200
#     158684
# 
# Disc length: 2337
# 
# Revision: 1
# Processed by: cddbd v1.5.2PL0 Copyright (c) Steve Scherf et al.
# Submitted via: BonkEnc v1.0
# 
DISCID=ab091f0c
DTITLE=ANDRE E ANDRADE - PAIXAO CAIPIRA
DYEAR=0
DGENRE=Country
TTITLE0=paixão caipira
TTITLE1=solidão sem consiência
TTITLE2=velho rancho
TTITLE3=daixa as águas rola
TTITLE4=trovejou mas não choveu
TTITLE5=terra amada
TTITLE6=oi meu bem
TTITLE7=viola e cantador
TTITLE8=nem touro nem cavalo
TTITLE9=virou um breu
TTITLE10=não tô nem aí
TTITLE11=visita de reis
EXTD=
EXTT0=
EXTT1=
EXTT2=
EXTT3=
EXTT4=
EXTT5=
EXTT6=
EXTT7=
EXTT8=
EXTT9=
EXTT10=
EXTT11=
PLAYORDER=
